<svg width="103" height="81" viewBox="0 0 103 81" fill="none" xmlns="http://www.w3.org/2000/svg">
<g id="Logo-1">
<path id="Vector" d="M93.9702 80.1482H19.411C17.3746 80.1482 15.7178 78.377 15.7178 76.1998V22.9172C15.7274 22.4731 15.8498 22.0427 16.0693 21.6819C16.2888 21.3211 16.5951 21.0466 16.9485 20.894L51.6648 4.49945C54.8548 3.00953 58.4054 3.00744 61.5966 4.4936L96.4307 20.8947C96.7846 21.0469 97.0915 21.3214 97.3113 21.6825C97.5312 22.0435 97.6539 22.4743 97.6635 22.9188V76.1998C97.6635 78.377 96.0067 80.1482 93.9702 80.1482Z" fill="#0CBC8B"/>
<path id="Vector_2" d="M39.2815 43.5317V38.0209C39.2815 37.3022 39.0397 36.6129 38.6092 36.1047C38.1787 35.5964 37.5948 35.3109 36.986 35.3109H25.2067C24.5979 35.3109 24.014 35.5964 23.5835 36.1047C23.153 36.6129 22.9111 37.3022 22.9111 38.0209V43.5317H39.2815Z" fill="white"/>
<path id="Vector_3" d="M22.9111 44.3971V52.9366C22.9111 53.6553 23.153 54.3446 23.5835 54.8529C24.014 55.3611 24.5979 55.6466 25.2067 55.6466H36.986C37.5948 55.6466 38.1787 55.3611 38.6092 54.8529C39.0397 54.3446 39.2815 53.6553 39.2815 52.9366V44.3971H22.9111Z" fill="white"/>
<path id="Vector_4" d="M94.8275 28.4057L59.4625 13.101C57.3131 12.1708 54.9538 12.1708 52.8043 13.101L17.4394 28.4057C16.694 28.7282 15.8937 28.8336 15.1064 28.7129C14.3192 28.5922 13.5683 28.2489 12.9174 27.7122C12.2666 27.1755 11.7351 26.4613 11.3682 25.6303C11.0012 24.7992 10.8096 23.8759 10.8096 22.9387C10.8096 21.746 11.1198 20.5821 11.6983 19.6043C12.2768 18.6266 13.0957 17.8821 14.0442 17.4717L52.8043 0.697658C54.9538 -0.232553 57.3131 -0.232553 59.4625 0.697658L98.2226 17.4717C99.1712 17.8821 99.9901 18.6266 100.569 19.6043C101.147 20.5821 101.457 21.746 101.457 22.9387C101.457 23.8759 101.266 24.7992 100.899 25.6303C100.532 26.4613 100 27.1755 99.3494 27.7122C98.6986 28.2489 97.9477 28.5922 97.1604 28.7129C96.3732 28.8336 95.5729 28.7282 94.8275 28.4057Z" fill="#3F3D56"/>
<path id="Vector_5" d="M61.8439 80.4033H52.3919C51.3888 80.402 50.4271 79.9309 49.7178 79.0936C49.0085 78.2562 48.6095 77.1209 48.6084 75.9367V48.9134C48.6095 47.7292 49.0085 46.5939 49.7178 45.7565C50.4271 44.9191 51.3888 44.4481 52.3919 44.4468H61.8439C62.847 44.4481 63.8086 44.9191 64.5179 45.7565C65.2272 46.5939 65.6262 47.7292 65.6273 48.9134V75.9367C65.6262 77.1209 65.2272 78.2562 64.5179 79.0936C63.8086 79.9309 62.847 80.402 61.8439 80.4033ZM52.3919 45.2125C51.5608 45.2136 50.7639 45.6039 50.1762 46.2977C49.5885 46.9915 49.258 47.9322 49.257 48.9134V75.9367C49.258 76.9179 49.5885 77.8586 50.1762 78.5524C50.7639 79.2462 51.5608 79.6365 52.3919 79.6376H61.8439C62.675 79.6365 63.4718 79.2462 64.0595 78.5524C64.6472 77.8586 64.9778 76.9179 64.9788 75.9367V48.9134C64.9778 47.9322 64.6472 46.9915 64.0595 46.2977C63.4718 45.6039 62.675 45.2136 61.8439 45.2125H52.3919Z" fill="#3F3D56"/>
<path id="Vector_6" d="M23.0341 52.8898C22.5443 52.8898 22.0746 53.1194 21.7283 53.5283C21.382 53.9371 21.1875 54.4916 21.1875 55.0697C21.1875 55.6479 21.382 56.2024 21.7283 56.6112C22.0746 57.02 22.5443 57.2497 23.0341 57.2497H39.1601C39.6498 57.2497 40.1195 57.02 40.4658 56.6112C40.8121 56.2024 41.0067 55.6479 41.0067 55.0697C41.0067 54.4916 40.8121 53.9371 40.4658 53.5283C40.1195 53.1194 39.6498 52.8898 39.1601 52.8898H23.0341Z" fill="#CCCCCC"/>
<path id="Vector_7" d="M73.1221 44.3971V52.9366C73.1221 53.6553 73.3639 54.3446 73.7944 54.8529C74.2249 55.3611 74.8088 55.6466 75.4176 55.6466H87.1969C87.8057 55.6466 88.3896 55.3611 88.8201 54.8529C89.2506 54.3446 89.4925 53.6553 89.4925 52.9366V44.3971H73.1221Z" fill="white"/>
<path id="Vector_8" d="M89.4925 43.5317V38.0209C89.4925 37.3022 89.2506 36.6129 88.8201 36.1047C88.3896 35.5964 87.8057 35.3109 87.1969 35.3109H75.4176C74.8088 35.3109 74.2249 35.5964 73.7944 36.1047C73.3639 36.6129 73.1221 37.3022 73.1221 38.0209V43.5317H89.4925Z" fill="white"/>
<path id="Vector_9" d="M62.7374 63.2905C63.4796 63.2905 64.0812 62.5802 64.0812 61.704C64.0812 60.8278 63.4796 60.1176 62.7374 60.1176C61.9952 60.1176 61.3936 60.8278 61.3936 61.704C61.3936 62.5802 61.9952 63.2905 62.7374 63.2905Z" fill="#3F3D56"/>
<path id="Vector_10" d="M21.9086 49.8182H9.3166V49.5604C9.3166 49.1429 9.24695 48.7295 9.11161 48.3438C8.97627 47.958 8.77789 47.6075 8.52781 47.3123C8.27774 47.0171 7.98086 46.7829 7.65412 46.6231C7.32738 46.4633 6.97718 46.3811 6.62352 46.3811C6.26986 46.3811 5.91966 46.4633 5.59292 46.6231C5.26618 46.7829 4.9693 47.0171 4.71923 47.3123C4.46915 47.6075 4.27077 47.958 4.13543 48.3438C4.00009 48.7295 3.93044 49.1429 3.93044 49.5604V49.8182H2.69308C1.97883 49.8182 1.29384 50.1532 0.78879 50.7494C0.28374 51.3457 0 52.1544 0 52.9976C0 53.8408 0.28374 54.6494 0.78879 55.2457C1.29384 55.8419 1.97883 56.1769 2.69308 56.1769H3.93044V80.2036C9.29657 80.0766 3.89159 80.3318 9.3166 80.2036V56.1769H21.9086C22.6228 56.1769 23.3078 55.8419 23.8129 55.2457C24.3179 54.6494 24.6016 53.8408 24.6016 52.9976C24.6016 52.1544 24.3179 51.3457 23.8129 50.7494C23.3078 50.1532 22.6228 49.8182 21.9086 49.8182Z" fill="#3F3D56"/>
<path id="Vector_11" d="M23.5091 68.85H11.8653C11.3154 68.8493 10.7881 68.591 10.3992 68.1319C10.0104 67.6728 9.79163 67.0504 9.79102 66.4011V61.9352C9.79165 61.286 10.0104 60.6636 10.3993 60.2045C10.7881 59.7454 11.3154 59.4872 11.8653 59.4865H23.5091C24.059 59.4872 24.5863 59.7454 24.9751 60.2045C25.364 60.6636 25.5828 61.286 25.5834 61.9352V66.4011C25.5828 67.0504 25.364 67.6728 24.9752 68.1319C24.5863 68.591 24.059 68.8493 23.5091 68.85Z" fill="#CCCCCC"/>
<path id="Vector_12" d="M102.921 80.5237H1.24887C1.22793 80.5237 1.20785 80.4968 1.19304 80.4489C1.17824 80.401 1.16992 80.3361 1.16992 80.2684C1.16992 80.2007 1.17824 80.1358 1.19304 80.0879C1.20785 80.0401 1.22793 80.0132 1.24887 80.0132H102.921C102.942 80.0132 102.962 80.0401 102.977 80.0879C102.992 80.1358 103 80.2007 103 80.2684C103 80.3361 102.992 80.401 102.977 80.4489C102.962 80.4968 102.942 80.5237 102.921 80.5237Z" fill="#CCCCCC"/>
<path id="Vector_13" d="M89.2474 57.5049H73.1214C72.5743 57.5049 72.0496 57.2484 71.6628 56.7917C71.2759 56.335 71.0586 55.7156 71.0586 55.0697C71.0586 54.4239 71.2759 53.8045 71.6628 53.3478C72.0496 52.8911 72.5743 52.6345 73.1214 52.6345H89.2474C89.7945 52.6345 90.3191 52.8911 90.706 53.3478C91.0928 53.8045 91.3101 54.4239 91.3101 55.0697C91.3101 55.7156 91.0928 56.335 90.706 56.7917C90.3191 57.2484 89.7945 57.5049 89.2474 57.5049Z" fill="#CCCCCC"/>
</g>
</svg>
