<svg width="51" height="41" viewBox="0 0 51 41" fill="none" xmlns="http://www.w3.org/2000/svg">
<g id="search">
<path id="Vector" d="M45.59 0H4.61005C2.06401 0 0 2.06395 0 4.60999V35.8C0 38.346 2.06401 40.41 4.61005 40.41H45.59C48.1361 40.41 50.2 38.346 50.2 35.8V4.60999C50.2 2.06395 48.1361 0 45.59 0Z" fill="#5468FF"/>
<path id="Vector_2" d="M29.4298 22.88H28.4998L28.1398 22.5901C29.3183 21.1908 29.9631 19.4194 29.9598 17.5901C29.9539 16.0988 29.5059 14.6428 28.6724 13.4062C27.839 12.1695 26.6575 11.2078 25.2775 10.6426C23.8975 10.0774 22.3809 9.93412 20.9195 10.2309C19.4581 10.5276 18.1174 11.2511 17.0671 12.3098C16.0169 13.3685 15.3041 14.7148 15.019 16.1786C14.7339 17.6423 14.8892 19.1577 15.4653 20.5332C16.0415 21.9086 17.0126 23.0824 18.2558 23.906C19.499 24.7295 20.9586 25.166 22.4498 25.1601C24.2552 25.1499 26.0011 24.5136 27.3898 23.36L27.7398 23.6601V24.5801L33.5498 30.42L35.2998 28.67L29.4298 22.88ZM22.4298 22.88C21.3906 22.884 20.3736 22.5794 19.5076 22.005C18.6416 21.4305 17.9657 20.612 17.5652 19.653C17.1648 18.6941 17.058 17.6379 17.2583 16.6181C17.4586 15.5984 17.957 14.6611 18.6904 13.9248C19.4239 13.1886 20.3593 12.6867 21.3782 12.4825C22.3972 12.2783 23.4538 12.381 24.4142 12.7778C25.3747 13.1746 26.1959 13.8474 26.7736 14.7112C27.3514 15.575 27.6598 16.5908 27.6599 17.63C27.6651 18.3176 27.5342 18.9994 27.2748 19.6361C27.0153 20.2728 26.6324 20.8519 26.1481 21.3399C25.6638 21.828 25.0876 22.2153 24.4529 22.4796C23.8182 22.744 23.1374 22.8801 22.4498 22.88H22.4298Z" fill="white"/>
</g>
</svg>
