<svg width="589" height="293" viewBox="0 0 589 293" fill="none" xmlns="http://www.w3.org/2000/svg">
<g id="search-home" clip-path="url(#clip0_2649_915)">
<path id="Vector" d="M160.816 239.64C176.806 239.64 189.769 226.701 189.769 210.739C189.769 194.778 176.806 181.839 160.816 181.839C144.826 181.839 131.864 194.778 131.864 210.739C131.864 226.701 144.826 239.64 160.816 239.64Z" fill="#E4E4E4"/>
<path id="Vector_2" opacity="0.2" d="M139.439 191.436C136.738 197.742 136.372 204.801 138.405 211.352C140.439 217.902 144.739 223.518 150.539 227.195C156.338 230.872 163.258 232.37 170.062 231.423C176.867 230.476 183.112 227.144 187.682 222.023C186.032 225.876 183.563 229.325 180.446 232.13C177.328 234.936 173.637 237.031 169.628 238.271C165.619 239.511 161.387 239.866 157.227 239.312C153.066 238.758 149.076 237.307 145.533 235.061C141.99 232.814 138.979 229.826 136.707 226.303C134.436 222.779 132.96 218.805 132.38 214.655C131.8 210.506 132.131 206.28 133.35 202.27C134.569 198.261 136.647 194.564 139.439 191.436V191.436Z" fill="black"/>
<path id="Vector_3" d="M160.896 210.74H160.975L162.407 292.677H159.384L160.896 210.74Z" fill="#3F3D56"/>
<path id="Vector_4" d="M102.237 185.744C134.476 185.744 160.61 159.657 160.61 127.476C160.61 95.2952 134.476 69.2075 102.237 69.2075C69.998 69.2075 43.8633 95.2952 43.8633 127.476C43.8633 159.657 69.998 185.744 102.237 185.744Z" fill="#E4E4E4"/>
<path id="Vector_5" opacity="0.2" d="M59.1361 88.5571C53.6912 101.271 52.9525 115.503 57.0522 128.71C61.1518 141.918 69.8226 153.24 81.5151 160.653C93.2076 168.066 107.16 171.088 120.879 169.178C134.598 167.268 147.189 160.551 156.404 150.227C153.077 157.994 148.099 164.947 141.814 170.604C135.528 176.26 128.086 180.485 120.003 182.985C111.919 185.486 103.388 186.202 94.9997 185.084C86.6114 183.967 78.5668 181.042 71.4233 176.513C64.2799 171.984 58.2082 165.958 53.6291 158.854C49.05 151.75 46.073 143.738 44.9042 135.371C43.7354 127.005 44.4028 118.485 46.8603 110.401C49.3177 102.318 53.5064 94.8642 59.1361 88.5571V88.5571Z" fill="black"/>
<path id="Vector_6" d="M102.397 127.476H102.558L105.445 292.677H99.3506L102.397 127.476Z" fill="#3F3D56"/>
<path id="Vector_7" d="M487.095 207.17H219.536V286.343H487.095V207.17Z" fill="#F0F0F0"/>
<path id="Vector_8" d="M368.914 223.532H337.717V286.343H368.914V223.532Z" fill="#CACACA"/>
<path id="Vector_9" d="M471.496 113.745H235.135V186.585H471.496V113.745Z" fill="#F0F0F0"/>
<path id="Vector_10" d="M495.459 118.232H211.172C210.698 118.232 210.234 118.09 209.841 117.825C209.447 117.56 209.142 117.183 208.965 116.744C208.788 116.304 208.746 115.822 208.846 115.359C208.945 114.896 209.181 114.473 209.523 114.144L287.219 39.5969V7.12559C287.22 6.49586 287.471 5.89214 287.917 5.44686C288.363 5.00157 288.968 4.7511 289.599 4.75039H304.933C305.564 4.75108 306.169 5.00155 306.615 5.44684C307.061 5.89212 307.312 6.49586 307.313 7.12559V20.318L313.181 14.6872C322.784 5.47301 335.525 0.228356 348.844 0.00728311C362.162 -0.21379 375.071 4.6051 384.976 13.4955L497.05 114.09C497.408 114.411 497.66 114.834 497.773 115.301C497.885 115.768 497.853 116.258 497.681 116.707C497.508 117.156 497.204 117.541 496.807 117.814C496.411 118.086 495.941 118.232 495.459 118.232V118.232Z" fill="#CACACA"/>
<path id="Vector_11" d="M297.53 132.219C299.509 132.219 301.469 132.608 303.297 133.364C305.125 134.12 306.787 135.228 308.186 136.625C309.585 138.022 310.695 139.68 311.453 141.505C312.21 143.33 312.6 145.286 312.6 147.262V167.583H282.46V147.262C282.46 145.286 282.85 143.33 283.607 141.505C284.364 139.68 285.474 138.022 286.874 136.625C288.273 135.228 289.935 134.12 291.763 133.364C293.591 132.608 295.551 132.219 297.53 132.219V132.219Z" fill="white"/>
<path id="Vector_12" d="M353.316 132.483C357.312 132.483 361.146 134.068 363.972 136.889C366.798 139.71 368.386 143.536 368.386 147.526V167.847H338.246V147.526C338.246 143.536 339.833 139.71 342.66 136.889C345.486 134.068 349.319 132.483 353.316 132.483V132.483Z" fill="white"/>
<path id="Vector_13" d="M409.101 132.747C413.098 132.747 416.931 134.332 419.757 137.153C422.583 139.974 424.171 143.8 424.171 147.79V168.111H394.031V147.79C394.031 143.8 395.619 139.974 398.445 137.153C401.271 134.332 405.104 132.747 409.101 132.747V132.747Z" fill="white"/>
<path id="Vector_14" d="M431.309 222.74C435.306 222.74 439.139 224.325 441.965 227.146C444.792 229.967 446.379 233.793 446.379 237.783V258.104H416.239V237.783C416.239 233.793 417.827 229.967 420.653 227.146C423.479 224.325 427.312 222.74 431.309 222.74Z" fill="white"/>
<path id="Vector_15" d="M282.196 222.74C286.193 222.74 290.026 224.325 292.852 227.146C295.678 229.967 297.266 233.793 297.266 237.783V258.104H267.126V237.783C267.126 235.808 267.516 233.852 268.273 232.026C269.03 230.201 270.14 228.543 271.54 227.146C272.939 225.749 274.601 224.641 276.429 223.885C278.257 223.129 280.217 222.74 282.196 222.74V222.74Z" fill="white"/>
<path id="Vector_16" d="M526.184 208.406L475.993 186.237C475.724 186.118 475.432 186.057 475.137 186.057H235.935C235.662 186.057 235.392 186.11 235.139 186.212L180.506 208.381C180.052 208.565 179.676 208.901 179.442 209.332C179.209 209.763 179.133 210.261 179.227 210.742C179.321 211.222 179.579 211.655 179.958 211.966C180.337 212.278 180.812 212.448 181.303 212.448H195.477V285.287H193.891V292.677H512.74V285.287H510.097V212.448H525.328C525.813 212.448 526.284 212.281 526.66 211.977C527.037 211.672 527.297 211.247 527.398 210.773C527.498 210.3 527.432 209.806 527.211 209.375C526.99 208.944 526.628 208.602 526.184 208.406ZM505.866 285.287H199.707V212.448H505.866V285.287Z" fill="#CACACA"/>
<path id="Vector_17" d="M316.302 164.68H277.701V171.014H316.302V164.68Z" fill="#CACACA"/>
<path id="Vector_18" d="M372.88 164.68H334.28V171.014H372.88V164.68Z" fill="#CACACA"/>
<path id="Vector_19" d="M429.459 164.68H390.858V171.014H429.459V164.68Z" fill="#CACACA"/>
<path id="Vector_20" d="M450.61 255.993H412.009V262.327H450.61V255.993Z" fill="#CACACA"/>
<path id="Vector_21" d="M300.967 255.993H262.367V262.327H300.967V255.993Z" fill="#CACACA"/>
<path id="Vector_22" d="M588.352 293H0.647965C0.476114 293 0.311301 292.932 0.189784 292.81C0.068267 292.689 0 292.525 0 292.353C0 292.182 0.068267 292.017 0.189784 291.896C0.311301 291.774 0.476114 291.706 0.647965 291.706H588.352C588.524 291.706 588.689 291.774 588.81 291.896C588.932 292.017 589 292.182 589 292.353C589 292.525 588.932 292.689 588.81 292.81C588.689 292.932 588.524 293 588.352 293Z" fill="#3F3D56"/>
<path id="Vector_23" d="M440.529 112.659C440.529 113.073 440.523 113.494 440.517 113.908C440.51 114.406 440.497 114.897 440.478 115.395C440.458 115.829 440.439 116.256 440.413 116.682C440.335 118.112 440.212 119.535 440.044 120.964C440.005 121.326 439.959 121.682 439.907 122.044C439.869 122.323 439.83 122.607 439.784 122.892C439.739 123.209 439.694 123.526 439.642 123.843C439.538 124.515 439.421 125.188 439.292 125.861C439.227 126.197 439.162 126.533 439.091 126.869C438.955 127.536 438.806 128.208 438.65 128.875C438.637 128.926 438.625 128.985 438.612 129.036C438.534 129.366 438.456 129.69 438.372 130.019C438.346 130.116 438.326 130.207 438.294 130.304C438.236 130.55 438.171 130.796 438.106 131.041C438.015 131.384 437.925 131.72 437.828 132.063C437.672 132.594 437.517 133.118 437.355 133.648C437.334 133.703 437.317 133.759 437.303 133.816C436.992 134.819 436.661 135.808 436.298 136.791C436.11 137.309 435.91 137.833 435.709 138.35C435.508 138.868 435.3 139.385 435.087 139.896C434.879 140.394 434.665 140.892 434.452 141.384C434.4 141.5 434.348 141.617 434.29 141.733C434.063 142.244 433.829 142.742 433.59 143.24C433.583 143.246 433.583 143.259 433.577 143.266C433.389 143.667 433.188 144.068 432.987 144.462C432.987 144.474 432.982 144.486 432.974 144.495C432.78 144.883 432.579 145.271 432.372 145.653L432.041 146.28L432.002 146.351C431.588 147.121 431.16 147.884 430.706 148.641C430.609 148.809 430.512 148.977 430.415 149.139C430.318 149.307 430.214 149.475 430.11 149.637C430.045 149.753 429.974 149.87 429.896 149.986C429.76 150.206 429.624 150.432 429.482 150.652C429.456 150.698 429.423 150.743 429.398 150.788C429.151 151.17 428.905 151.545 428.659 151.926C428.354 152.386 428.043 152.838 427.726 153.291L420.689 164.533L420.384 164.28L420.3 164.203H420.294L420.015 163.97L419.25 163.323C419.017 163.549 418.79 163.776 418.557 163.996C418.466 164.086 418.369 164.17 418.278 164.261C418.207 164.326 418.142 164.39 418.071 164.455C405.905 176.314 389.723 183.181 372.726 183.697H372.707C359.841 184.05 347.104 181.049 335.754 174.991C335.501 174.862 335.255 174.732 335.008 174.584C333.531 173.782 332.086 172.934 330.667 172.029C330.661 172.022 330.654 172.022 330.648 172.016C329.002 170.852 327.395 169.61 325.827 168.29C317.414 161.212 310.759 152.285 306.382 142.209C302.006 132.133 300.027 121.182 300.602 110.214C300.621 109.781 300.647 109.354 300.679 108.921C300.783 107.355 300.943 105.797 301.159 104.244C301.217 103.811 301.282 103.378 301.347 102.951H439.869C440.141 104.93 440.329 106.92 440.432 108.921C440.497 110.169 440.529 111.411 440.529 112.659Z" fill="#F0F0F0"/>
<path id="Vector_24" d="M439.869 102.951C437.375 86.3963 429.013 71.2846 416.303 60.3627C403.593 49.4408 387.378 43.4338 370.608 43.4338C353.837 43.4338 337.623 49.4408 324.913 60.3627C312.203 71.2846 303.841 86.3963 301.347 102.951C301.282 103.378 301.217 103.811 301.159 104.244C300.945 105.797 300.785 107.356 300.679 108.921H440.432C440.329 106.922 440.141 104.932 439.869 102.951Z" fill="#6C63FF"/>
<path id="Vector_25" d="M375.145 174.989H335.012V142.943C335.752 128.297 348.292 127.115 360.075 127.901C362.054 127.9 364.014 128.289 365.842 129.045C367.671 129.801 369.332 130.909 370.731 132.306C372.131 133.703 373.241 135.361 373.998 137.186C374.755 139.011 375.145 140.967 375.145 142.943V174.989Z" fill="#6C63FF"/>
<path id="Vector_26" d="M335.008 152.205V152.211C335.008 152.218 335.015 152.218 335.021 152.218L335.008 152.205ZM318.868 102.951C318.842 103.113 318.809 103.274 318.783 103.436C318.809 103.274 318.842 103.113 318.874 102.951H318.868ZM318.064 108.921C318.045 109.167 318.025 109.413 318.012 109.658C318.025 109.413 318.045 109.167 318.071 108.921C318.07 108.876 318.072 108.83 318.077 108.785C318.071 108.83 318.071 108.876 318.064 108.921V108.921ZM335.008 152.211C335.008 152.218 335.015 152.218 335.021 152.218L335.008 152.205V152.211ZM318.868 102.951C318.842 103.113 318.809 103.274 318.783 103.436C318.809 103.274 318.842 103.113 318.874 102.951H318.868ZM318.012 109.658C318.025 109.413 318.045 109.167 318.071 108.921C318.07 108.876 318.072 108.83 318.077 108.785C318.071 108.83 318.071 108.876 318.064 108.921C318.045 109.167 318.025 109.413 318.012 109.658V109.658ZM518.194 228.644C518.069 228.51 517.934 228.385 517.793 228.268L517.786 228.262L485.699 201.232L484.87 200.534L481.714 197.875L480.924 197.209L476.427 193.419L475.196 192.384L472.649 190.237L471.347 189.137L459.061 178.795L452.018 172.864L451.072 172.068L430.318 154.585C430.635 154.132 430.946 153.68 431.251 153.22C431.497 152.839 431.743 152.464 431.989 152.082C432.015 152.037 432.048 151.991 432.074 151.946C432.216 151.726 432.352 151.5 432.488 151.28C432.566 151.163 432.637 151.047 432.702 150.931C432.806 150.769 432.909 150.601 433.007 150.433C433.104 150.271 433.201 150.103 433.298 149.935C433.752 149.178 434.179 148.415 434.594 147.645L434.633 147.574L434.963 146.946C435.171 146.565 435.372 146.177 435.566 145.789C435.574 145.78 435.579 145.768 435.579 145.756C435.78 145.362 435.981 144.961 436.169 144.56C436.175 144.553 436.175 144.54 436.182 144.534C436.421 144.036 436.655 143.538 436.882 143.027C436.94 142.91 436.992 142.794 437.043 142.678C437.257 142.186 437.471 141.688 437.679 141.19C437.892 140.679 438.1 140.161 438.301 139.644C438.501 139.127 438.702 138.603 438.89 138.085C439.247 137.096 439.581 136.104 439.895 135.11C439.909 135.053 439.926 134.997 439.946 134.942C440.108 134.411 440.264 133.888 440.419 133.357C440.517 133.014 440.607 132.678 440.698 132.335C440.763 132.089 440.828 131.844 440.886 131.598C440.918 131.501 440.938 131.41 440.964 131.313C441.048 130.983 441.126 130.66 441.203 130.33C441.216 130.278 441.229 130.22 441.242 130.168C441.398 129.502 441.547 128.83 441.683 128.163C441.754 127.827 441.819 127.491 441.884 127.154C442.007 126.482 442.13 125.809 442.234 125.136C442.285 124.819 442.331 124.502 442.376 124.186C442.421 123.901 442.46 123.616 442.499 123.338C442.551 122.976 442.596 122.62 442.635 122.258C442.804 120.829 442.927 119.406 443.005 117.976C443.031 117.549 443.05 117.122 443.069 116.689C443.089 116.191 443.102 115.7 443.108 115.201C443.115 114.788 443.121 114.367 443.121 113.953C443.121 112.705 443.089 111.463 443.024 110.215C442.92 108.216 442.732 106.226 442.46 104.245C440.139 87.308 431.789 71.771 418.937 60.4735C406.084 49.176 389.588 42.8726 372.464 42.7157C355.339 42.5587 338.73 48.5585 325.672 59.6185C312.614 70.6785 303.979 86.0598 301.347 102.951C301.282 103.378 301.217 103.811 301.159 104.245C300.945 105.797 300.785 107.356 300.679 108.921C300.647 109.354 300.621 109.781 300.602 110.215C300.027 121.182 302.006 132.133 306.382 142.209C310.759 152.285 317.414 161.213 325.827 168.291C327.395 169.61 329.002 170.852 330.648 172.016C330.654 172.023 330.661 172.023 330.667 172.029C331.218 172.417 331.769 172.799 332.326 173.174C333.213 173.756 334.108 174.325 335.008 174.869C335.08 174.907 335.151 174.953 335.222 174.992C336 175.457 336.784 175.904 337.568 176.337H337.574C340.493 177.939 343.522 179.331 346.639 180.502C355.785 183.937 365.539 185.465 375.299 184.991H375.318C386.71 184.441 397.802 181.165 407.658 175.438C409.09 174.61 410.503 173.724 411.883 172.78C412.226 172.547 412.576 172.307 412.913 172.068C413.328 171.777 413.743 171.473 414.157 171.169C414.164 171.169 414.164 171.163 414.17 171.163C414.201 171.137 414.234 171.113 414.267 171.091C414.546 170.878 414.831 170.664 415.103 170.458C415.175 170.406 415.246 170.354 415.317 170.296C415.336 170.283 415.353 170.267 415.369 170.25C415.531 170.134 415.686 170.005 415.848 169.882C416.01 169.759 416.166 169.63 416.328 169.5C416.355 169.483 416.381 169.463 416.406 169.442C416.587 169.293 416.769 169.151 416.95 169.002C417.138 168.853 417.319 168.698 417.494 168.549C417.676 168.401 417.851 168.252 418.032 168.097C418.188 167.967 418.35 167.831 418.505 167.689C418.557 167.65 418.602 167.605 418.654 167.56C418.674 167.541 418.696 167.523 418.719 167.508C418.933 167.327 419.14 167.139 419.348 166.952C419.399 166.906 419.445 166.861 419.497 166.816C419.814 166.531 420.132 166.247 420.443 165.949C420.514 165.885 420.592 165.813 420.663 165.749C420.734 165.684 420.799 165.619 420.87 165.555C420.961 165.464 421.058 165.38 421.149 165.29C421.382 165.07 421.609 164.843 421.842 164.617L422.607 165.264L422.885 165.497H422.892L422.976 165.574L423.281 165.826L427.803 169.643L427.901 169.727L427.978 169.785L428.49 170.218L429.514 171.085L430.538 171.945L430.687 172.068L435.449 176.078L436.11 176.634L440.704 180.502L464.485 200.534L465.314 201.232L497.861 228.644L506.207 235.674L509.311 238.287C509.97 238.844 510.732 239.265 511.554 239.527C512.376 239.79 513.242 239.887 514.102 239.815C514.962 239.743 515.799 239.503 516.566 239.107C517.333 238.712 518.014 238.17 518.57 237.511C519.036 236.965 519.407 236.344 519.665 235.674C520.136 234.487 520.247 233.188 519.986 231.939C519.724 230.689 519.102 229.543 518.194 228.644V228.644ZM330.499 78.709C336.999 71.0195 345.546 65.3226 355.153 62.2765C364.759 59.2303 375.033 58.9591 384.788 61.4943C394.542 64.0294 403.379 69.2675 410.278 76.6033C417.176 83.9392 421.855 93.0735 423.773 102.951C423.857 103.384 423.935 103.811 424.006 104.245C424.272 105.791 424.466 107.356 424.583 108.921C424.615 109.354 424.648 109.781 424.667 110.215C424.726 111.185 424.752 112.161 424.752 113.132C424.755 119.017 423.779 124.862 421.862 130.427V130.434C419.719 136.674 416.43 142.46 412.162 147.496C412.071 147.6 411.98 147.71 411.883 147.813C411.028 148.822 410.127 149.792 409.2 150.717C409.194 150.724 409.187 150.737 409.181 150.743C408.863 151.06 408.539 151.383 408.215 151.681C407.554 152.321 406.881 152.929 406.194 153.511C405.163 154.41 404.107 155.253 403.025 156.04C402.662 156.306 402.3 156.564 401.93 156.823C401.567 157.082 401.198 157.328 400.829 157.573C400.09 158.065 399.338 158.537 398.58 158.983C398.204 159.21 397.816 159.43 397.433 159.643C397.051 159.863 396.662 160.07 396.273 160.27C395.885 160.477 395.496 160.678 395.101 160.872C394.317 161.267 393.526 161.635 392.723 161.978C392.321 162.159 391.919 162.327 391.517 162.482C391.265 162.586 391.018 162.69 390.766 162.78C390.667 162.826 390.565 162.864 390.461 162.896C390.325 162.955 390.189 163.006 390.053 163.052C390.009 163.072 389.963 163.089 389.917 163.103C389.638 163.213 389.366 163.31 389.081 163.407C388.673 163.556 388.264 163.692 387.85 163.821C387.435 163.957 387.027 164.087 386.612 164.203C386.198 164.332 385.776 164.449 385.362 164.559C384.941 164.675 384.526 164.785 384.105 164.882C383.658 164.999 383.21 165.102 382.757 165.199C382.362 165.29 381.973 165.367 381.578 165.438C381.208 165.516 380.833 165.581 380.463 165.645C379.945 165.736 379.426 165.82 378.902 165.891C378.616 165.937 378.338 165.975 378.053 166.001C377.93 166.021 377.813 166.033 377.696 166.046C377.333 166.098 376.971 166.137 376.614 166.169C376.517 166.176 376.426 166.189 376.336 166.195C375.94 166.234 375.539 166.266 375.143 166.299C374.295 166.357 373.452 166.396 372.603 166.415C372.176 166.422 371.741 166.428 371.314 166.428C370.886 166.428 370.458 166.422 370.031 166.409C370.031 166.409 370.031 166.415 370.024 166.409C370.018 166.415 370.018 166.415 370.011 166.409C370.011 166.409 370.01 166.41 370.008 166.411C370.007 166.411 370.006 166.411 370.005 166.411C370.004 166.411 370.003 166.411 370.001 166.411C370 166.41 369.999 166.409 369.998 166.409C369.977 166.415 369.955 166.415 369.934 166.409C369.629 166.409 369.325 166.396 369.026 166.376C368.806 166.37 368.579 166.363 368.353 166.344C368.048 166.331 367.744 166.312 367.439 166.286C367.342 166.286 367.245 166.273 367.147 166.266C367.102 166.265 367.056 166.261 367.011 166.253C366.7 166.228 366.383 166.202 366.072 166.169C365.916 166.156 365.754 166.143 365.599 166.124C365.126 166.072 364.653 166.014 364.186 165.949C363.655 165.885 363.124 165.807 362.599 165.71C362.353 165.678 362.113 165.632 361.873 165.587C361.556 165.535 361.238 165.477 360.921 165.413C360.59 165.348 360.26 165.283 359.929 165.206C359.663 165.147 359.391 165.089 359.126 165.025C358.996 164.999 358.866 164.966 358.743 164.934C358.063 164.772 357.389 164.598 356.722 164.404C356.3 164.287 355.879 164.164 355.465 164.035C354.894 163.86 354.331 163.673 353.767 163.472C353.547 163.401 353.333 163.323 353.112 163.239C352.892 163.168 352.678 163.084 352.458 163C352.257 162.929 352.056 162.851 351.862 162.774C351.538 162.651 351.22 162.521 350.903 162.392C350.248 162.127 349.607 161.849 348.965 161.551C348.603 161.377 348.24 161.208 347.883 161.034C346.477 160.355 345.093 159.6 343.73 158.77C343.393 158.569 343.056 158.356 342.719 158.143C342.298 157.884 341.89 157.612 341.482 157.341C341.255 157.185 341.034 157.037 340.814 156.881C340.406 156.597 340.004 156.306 339.609 156.015C339.401 155.866 339.194 155.711 338.993 155.555C338.274 155.012 337.568 154.443 336.874 153.861C336.544 153.583 336.214 153.298 335.89 153.007C335.753 152.891 335.617 152.768 335.481 152.645C335.326 152.502 335.17 152.367 335.021 152.218L335.008 152.205C334.782 152.004 334.555 151.791 334.334 151.578C333.991 151.254 333.654 150.924 333.33 150.588C332.993 150.258 332.669 149.915 332.352 149.579C332.028 149.243 331.717 148.9 331.412 148.55C331.101 148.208 330.797 147.858 330.498 147.503C330.207 147.166 329.922 146.817 329.65 146.474C328.989 145.659 328.358 144.829 327.758 143.984C327.479 143.596 327.213 143.208 326.954 142.813C326.676 142.412 326.41 142.005 326.157 141.597C325.891 141.19 325.639 140.776 325.393 140.356C325.386 140.341 325.377 140.328 325.367 140.317C324.881 139.495 324.414 138.667 323.98 137.827C323.533 136.973 323.112 136.11 322.716 135.239C322.516 134.806 322.321 134.366 322.14 133.926C321.764 133.04 321.414 132.154 321.09 131.255C320.928 130.822 320.779 130.388 320.63 129.948C320.625 129.919 320.616 129.891 320.604 129.864C320.306 128.972 320.034 128.073 319.794 127.167C319.788 127.154 319.788 127.142 319.781 127.129C319.658 126.682 319.541 126.236 319.438 125.783C319.334 125.389 319.243 124.994 319.159 124.593C319.062 124.147 318.965 123.7 318.88 123.248C318.835 123.015 318.79 122.782 318.751 122.549C318.712 122.355 318.68 122.155 318.647 121.961C318.615 121.767 318.582 121.566 318.55 121.366C318.485 120.971 318.427 120.576 318.375 120.182C318.31 119.716 318.258 119.251 318.207 118.778C318.148 118.216 318.096 117.653 318.051 117.084C318.019 116.702 317.999 116.314 317.98 115.926C317.96 115.57 317.941 115.214 317.934 114.859C317.928 114.84 317.928 114.819 317.934 114.801C317.934 114.8 317.933 114.799 317.932 114.798C317.932 114.796 317.932 114.795 317.932 114.794C317.932 114.793 317.932 114.792 317.932 114.791C317.933 114.789 317.934 114.788 317.934 114.788C317.928 114.781 317.928 114.781 317.934 114.775C317.934 114.774 317.933 114.773 317.932 114.772C317.932 114.771 317.932 114.769 317.932 114.768C317.932 114.767 317.932 114.766 317.932 114.765C317.933 114.764 317.934 114.763 317.934 114.762C317.928 114.619 317.921 114.477 317.921 114.335C317.909 113.914 317.902 113.494 317.902 113.074C317.902 112.692 317.909 112.317 317.915 111.935C317.928 111.405 317.947 110.874 317.973 110.344C317.973 110.228 317.986 110.118 317.993 110.001C317.999 109.885 318.006 109.775 318.012 109.658C318.025 109.413 318.045 109.167 318.071 108.921C318.069 108.876 318.072 108.83 318.077 108.785C318.096 108.507 318.122 108.229 318.148 107.951C318.2 107.395 318.265 106.832 318.336 106.276C318.375 105.998 318.407 105.719 318.453 105.441C318.479 105.247 318.511 105.047 318.543 104.846C318.569 104.646 318.602 104.445 318.641 104.245C318.686 103.98 318.731 103.708 318.783 103.436C318.809 103.275 318.842 103.113 318.874 102.951C318.997 102.304 319.133 101.658 319.282 101.011C319.431 100.358 319.6 99.7107 319.781 99.0639C319.956 98.4107 320.15 97.7574 320.358 97.1041C320.455 96.7743 320.559 96.4509 320.675 96.1275C320.889 95.4742 321.116 94.8274 321.369 94.1871C321.485 93.8701 321.608 93.5467 321.744 93.2298C322.004 92.5895 322.276 91.9491 322.554 91.3217C322.697 91.0048 322.84 90.6879 322.995 90.371C323.287 89.7436 323.591 89.1162 323.922 88.5017C324.239 87.8743 324.583 87.2599 324.932 86.6519C325.282 86.0439 325.645 85.4359 326.028 84.8343C326.202 84.5368 326.397 84.2328 326.598 83.9418C326.986 83.3467 327.395 82.7517 327.809 82.1695C328.645 80.9922 329.546 79.8345 330.499 78.709ZM318.064 108.921C318.045 109.167 318.025 109.413 318.012 109.658C318.025 109.413 318.045 109.167 318.071 108.921C318.07 108.876 318.072 108.83 318.077 108.785C318.071 108.83 318.071 108.876 318.064 108.921ZM318.868 102.951C318.842 103.113 318.809 103.274 318.783 103.436C318.809 103.274 318.842 103.113 318.874 102.951H318.868ZM335.008 152.205V152.211C335.008 152.218 335.015 152.218 335.021 152.218L335.008 152.205Z" fill="#3F3D56"/>
<path id="Vector_27" opacity="0.3" d="M336.875 153.86C326.626 145.227 320.005 133.061 318.325 119.78C316.646 106.499 320.031 93.0733 327.81 82.1685C326.788 83.1953 325.801 84.2708 324.847 85.3948C320.323 90.7472 316.899 96.9367 314.77 103.61C312.642 110.283 311.852 117.31 312.444 124.288C313.036 131.266 315 138.06 318.222 144.28C321.445 150.501 325.863 156.028 331.225 160.544C342.054 169.665 356.07 174.119 370.188 172.925C384.307 171.731 397.372 164.987 406.51 154.177C407.461 153.052 408.357 151.899 409.197 150.72C399.737 160.208 387.048 165.798 373.65 166.38C360.252 166.961 347.125 162.492 336.875 153.86V153.86Z" fill="black"/>
</g>
<defs>
<clipPath id="clip0_2649_915">
<rect width="589" height="293" fill="white"/>
</clipPath>
</defs>
</svg>
